<svg width="1200" height="720" viewBox="0 0 1200 720" fill="none" xmlns="http://www.w3.org/2000/svg">
  <rect width="1200" height="720" fill="#F4F1EA"/>
  <rect x="94" y="92" width="680" height="444" rx="28" fill="#FFFFFF" stroke="#E5E1D8" stroke-width="4"/>
  <rect x="94" y="92" width="680" height="72" rx="28" fill="#0A6B5E"/>
  <circle cx="142" cy="128" r="10" fill="#FCF9F2"/>
  <circle cx="178" cy="128" r="10" fill="#FCF9F2"/>
  <circle cx="214" cy="128" r="10" fill="#FCF9F2"/>
  <rect x="144" y="216" width="294" height="36" rx="18" fill="#1A1A1A"/>
  <rect x="144" y="278" width="520" height="18" rx="9" fill="#5A5A5A"/>
  <rect x="144" y="318" width="448" height="18" rx="9" fill="#5A5A5A"/>
  <rect x="144" y="380" width="180" height="54" rx="12" fill="#8B6D11"/>
  <rect x="362" y="380" width="180" height="54" rx="12" fill="#0A6B5E"/>
  <rect x="824" y="156" width="244" height="420" rx="36" fill="#0A6B5E"/>
  <rect x="850" y="204" width="192" height="294" rx="22" fill="#FCF9F2"/>
  <rect x="876" y="238" width="128" height="18" rx="9" fill="#1A1A1A"/>
  <rect x="876" y="286" width="140" height="12" rx="6" fill="#5A5A5A"/>
  <rect x="876" y="318" width="112" height="12" rx="6" fill="#5A5A5A"/>
  <rect x="876" y="378" width="108" height="42" rx="10" fill="#8B6D11"/>
  <circle cx="946" cy="536" r="16" fill="#FCF9F2"/>
  <path d="M153 598h894" stroke="#E5E1D8" stroke-width="4"/>
  <text x="144" y="630" fill="#0A6B5E" font-family="Inter, Arial, sans-serif" font-size="32" font-weight="700">Diseño web sanitario orientado a citas</text>
</svg>
