<svg width="1200" height="720" viewBox="0 0 1200 720" fill="none" xmlns="http://www.w3.org/2000/svg">
  <rect width="1200" height="720" fill="#F4F1EA"/>
  <rect x="78" y="78" width="1044" height="564" rx="34" fill="#FCF9F2" stroke="#E5E1D8" stroke-width="3"/>
  <rect x="124" y="134" width="418" height="452" rx="26" fill="#0A6B5E"/>
  <path d="M270 250c0-48 38-86 85-86s85 38 85 86c0 72-48 110-85 178-37-68-85-106-85-178Z" fill="#FCF9F2"/>
  <circle cx="355" cy="249" r="39" fill="#8B6D11"/>
  <rect x="612" y="150" width="392" height="58" rx="12" fill="#FFFFFF" stroke="#E5E1D8" stroke-width="3"/>
  <circle cx="646" cy="179" r="12" fill="#0A6B5E"/>
  <rect x="676" y="170" width="218" height="18" rx="9" fill="#0A6B5E"/>
  <rect x="612" y="254" width="392" height="58" rx="12" fill="#FFFFFF" stroke="#E5E1D8" stroke-width="3"/>
  <circle cx="646" cy="283" r="12" fill="#8B6D11"/>
  <rect x="676" y="274" width="280" height="18" rx="9" fill="#1A1A1A"/>
  <rect x="612" y="358" width="392" height="58" rx="12" fill="#FFFFFF" stroke="#E5E1D8" stroke-width="3"/>
  <circle cx="646" cy="387" r="12" fill="#8B6D11"/>
  <rect x="676" y="378" width="242" height="18" rx="9" fill="#1A1A1A"/>
  <rect x="612" y="462" width="392" height="58" rx="12" fill="#FFFFFF" stroke="#E5E1D8" stroke-width="3"/>
  <circle cx="646" cy="491" r="12" fill="#8B6D11"/>
  <rect x="676" y="482" width="190" height="18" rx="9" fill="#1A1A1A"/>
  <path d="M180 587h850" stroke="#E5E1D8" stroke-width="3"/>
  <text x="612" y="595" fill="#0A6B5E" font-family="Inter, Arial, sans-serif" font-size="32" font-weight="700">SEO local dental en Sevilla</text>
</svg>
