<svg xmlns="http://www.w3.org/2000/svg" viewBox="0 0 860 220" role="img" aria-label="iclinicas">
  <g fill="#0A6B5E">
    <circle cx="66" cy="91" r="18"/>
    <rect x="48" y="121" width="36" height="69" rx="18"/>
    <circle cx="133" cy="72" r="18"/>
    <circle cx="184" cy="40" r="17"/>
    <circle cx="198" cy="111" r="20"/>
    <circle cx="133" cy="142" r="18"/>
    <circle cx="203" cy="180" r="20"/>
    <circle cx="253" cy="86" r="18"/>
    <circle cx="272" cy="139" r="18"/>
    <path d="M133 72c22 0 43-12 51-32h-22c-8 9-18 14-29 14-10 0-18 8-18 18s8 18 18 18Z"/>
    <path d="M151 78c23 8 38 18 47 33h-35c-9-8-20-13-35-16-8-2-13-9-13-17 0-10 9-18 19-17 6 0 12 1 17 3Z"/>
    <path d="M151 136c22-8 37-16 47-31h-35c-9 7-20 12-35 15-8 2-13 9-13 17 0 10 9 18 19 17 6 0 12-1 17-3Z"/>
    <path d="M133 142c22 0 45 15 70 38h-28c-13-12-27-20-42-20-10 0-18-8-18-18s8-18 18-18Z"/>
    <path d="M213 107c17-2 29-9 40-21h-28c-8 6-16 9-27 10-9 1-16 9-16 18 0 10 8 18 18 18 11 0 21 3 31 8h32c-13-18-29-29-50-33Z"/>
    <path d="M211 150c18 3 32 13 45 30h-30c-8-7-16-12-25-14-10-2-17-10-17-20 0-10 9-18 19-17 20 2 39 6 57 10h12c-8 13-20 21-36 24-8-6-16-10-25-13Z"/>
  </g>
  <text
    x="330"
    y="146"
    fill="#0A6B5E"
    font-family="DM Sans, Inter, Arial, Helvetica, sans-serif"
    font-size="104"
    font-weight="500"
    letter-spacing="-3"
  >iclinicas</text>
</svg>
