<svg width="512" height="512" viewBox="0 0 512 512" fill="none" xmlns="http://www.w3.org/2000/svg" role="img" aria-labelledby="title desc">
  <title id="title">iClinicas Favicon</title>
  <desc id="desc">Favicon icon for iClinicas with lowercase i and AI neural network mark.</desc>
  <defs>
    <linearGradient id="networkGradient" x1="170" y1="150" x2="455" y2="365" gradientUnits="userSpaceOnUse">
      <stop offset="0" stop-color="#07215F"/>
      <stop offset="0.38" stop-color="#0A42E8"/>
      <stop offset="0.72" stop-color="#1478FF"/>
      <stop offset="1" stop-color="#18D7D6"/>
    </linearGradient>
  </defs>
  <circle cx="97" cy="160" r="32" fill="#061B55"/>
  <rect x="66" y="217" width="62" height="204" rx="31" fill="#061B55"/>

  <path d="M205 160 C241 160 243 118 291 118" stroke="url(#networkGradient)" stroke-width="31" stroke-linecap="round"/>
  <path d="M205 160 C248 160 254 220 305 220" stroke="url(#networkGradient)" stroke-width="31" stroke-linecap="round"/>
  <path d="M205 341 C250 341 252 281 305 281" stroke="url(#networkGradient)" stroke-width="31" stroke-linecap="round"/>
  <path d="M305 220 C348 220 353 174 400 174" stroke="url(#networkGradient)" stroke-width="31" stroke-linecap="round"/>
  <path d="M305 281 C349 281 356 329 405 329" stroke="url(#networkGradient)" stroke-width="31" stroke-linecap="round"/>
  <path d="M305 220 C347 220 349 281 305 281" stroke="url(#networkGradient)" stroke-width="31" stroke-linecap="round"/>
  <path d="M305 281 C345 281 356 220 305 220" stroke="url(#networkGradient)" stroke-width="31" stroke-linecap="round" opacity="0.92"/>
  <path d="M305 281 C358 281 370 234 427 234" stroke="url(#networkGradient)" stroke-width="31" stroke-linecap="round"/>
  <path d="M405 329 C447 329 454 375 501 375" stroke="url(#networkGradient)" stroke-width="31" stroke-linecap="round"/>

  <circle cx="205" cy="160" r="30" fill="#08266E"/>
  <circle cx="291" cy="118" r="28" fill="#0D59FF"/>
  <circle cx="305" cy="220" r="31" fill="#0B4DFF"/>
  <circle cx="205" cy="341" r="30" fill="#0A348F"/>
  <circle cx="305" cy="281" r="31" fill="#0B50FF"/>
  <circle cx="400" cy="174" r="30" fill="#11BCE9"/>
  <circle cx="405" cy="329" r="30" fill="#0E5CFF"/>
  <circle cx="427" cy="234" r="30" fill="#0E6DFF"/>
  <circle cx="501" cy="375" r="30" fill="#18D6D4"/>
</svg>
