<svg xmlns="http://www.w3.org/2000/svg" viewBox="0 0 512 512">
  <g fill="#0A6B5E">
    <circle cx="106" cy="180" r="43"/>
    <rect x="82" y="228" width="48" height="182" rx="24"/>
    <path d="M177 190c0-39 32-71 71-71 21 0 40 9 53 24l65-37c4-37 35-66 73-66 41 0 74 33 74 74s-33 74-74 74c-22 0-42-10-55-26l-68 39c-1 9-4 17-8 24l71 44c14-14 33-23 55-23 43 0 78 35 78 78s-35 78-78 78c-37 0-67-25-76-59l-74-46a72 72 0 0 1-61 0l-57 34c-5 36-35 64-73 64-41 0-74-33-74-74s33-74 74-74c21 0 40 9 54 23l56-34a70 70 0 0 1 1-31l-70-43a71 71 0 0 1-37 11c-39 0-71-32-71-71Zm71-33a33 33 0 1 0 0 66 33 33 0 0 0 0-66Zm36 102a33 33 0 1 0 66 0 33 33 0 0 0-66 0Zm88 106a33 33 0 1 0 66 0 33 33 0 0 0-66 0Z"/>
  </g>
</svg>
